{  "asset": {    "version": "2.0",    "generator": "THREE.GLTFExporter"  },  "scenes": [    {      "name": "AuxScene",      "nodes": [        17      ]    }  ],  "scene": 0,  "nodes": [    {      "mesh": 0    },    {      "mesh": 1    },    {      "mesh": 2    },    {      "mesh": 3    },    {      "mesh": 4    },    {      "mesh": 5    },    {      "mesh": 6    },    {      "mesh": 7    },    {      "mesh": 8    },    {      "mesh": 9    },    {      "mesh": 10    },    {      "mesh": 11    },    {      "mesh": 12    },    {      "mesh": 13    },    {      "mesh": 14    },    {      "mesh": 15    },    {      "mesh": 16    },    {      "children": [        0,        1,        2,        3,        4,        5,        6,        7,        8,        9,        10,        11,        12,        13,        14,        15,        16      ]    }  ],  "bufferViews": [    {      "buffer": 0,      "byteOffset": 0,      "byteLength": 5616,      "target": 34962,      "byteStride": 12    },    {      "buffer": 0,      "byteOffset": 5616,      "byteLength": 5616,      "target": 34962,      "byteStride": 12    },    {      "buffer": 0,      "byteOffset": 11232,      "byteLength": 432,      "target": 34962,      "byteStride": 12    },    {      "buffer": 0,      "byteOffset": 11664,      "byteLength": 432,      "target": 34962,      "byteStride": 12    },    {      "buffer": 0,      "byteOffset": 12096,      "byteLength": 432,      "target": 34962,      "byteStride": 12    },    {      "buffer": 0,      "byteOffset": 12528,      "byteLength": 432,      "target": 34962,      "byteStride": 12    },    {      "buffer": 0,      "byteOffset": 12960,      "byteLength": 1656,      "target": 34962,      "byteStride": 12    },    {      "buffer": 0,      "byteOffset": 14616,      "byteLength": 1656,      "target": 34962,      "byteStride": 12    },    {      "buffer": 0,      "byteOffset": 16272,      "byteLength": 1656,      "target": 34962,      "byteStride": 12    },    {      "buffer": 0,      "byteOffset": 17928,      "byteLength": 1656,      "target": 34962,      "byteStride": 12    },    {      "buffer": 0,      "byteOffset": 19584,      "byteLength": 432,      "target": 34962,      "byteStride": 12    },    {      "buffer": 0,      "byteOffset": 20016,      "byteLength": 432,      "target": 34962,      "byteStride": 12    },    {      "buffer": 0,      "byteOffset": 20448,      "byteLength": 432,      "target": 34962,      "byteStride": 12    },    {      "buffer": 0,      "byteOffset": 20880,      "byteLength": 432,      "target": 34962,      "byteStride": 12    },    {      "buffer": 0,      "byteOffset": 21312,      "byteLength": 2304,      "target": 34962,      "byteStride": 12    },    {      "buffer": 0,      "byteOffset": 23616,      "byteLength": 2304,      "target": 34962,      "byteStride": 12    },    {      "buffer": 0,      "byteOffset": 25920,      "byteLength": 10224,      "target": 34962,      "byteStride": 12    },    {      "buffer": 0,      "byteOffset": 36144,      "byteLength": 10224,      "target": 34962,      "byteStride": 12    },    {      "buffer": 0,      "byteOffset": 46368,      "byteLength": 10800,      "target": 34962,      "byteStride": 12    },    {      "buffer": 0,      "byteOffset": 57168,      "byteLength": 10800,      "target": 34962,      "byteStride": 12    },    {      "buffer": 0,      "byteOffset": 67968,      "byteLength": 432,      "target": 34962,      "byteStride": 12    },    {      "buffer": 0,      "byteOffset": 68400,      "byteLength": 432,      "target": 34962,      "byteStride": 12    },    {      "buffer": 0,      "byteOffset": 68832,      "byteLength": 432,      "target": 34962,      "byteStride": 12    },    {      "buffer": 0,      "byteOffset": 69264,      "byteLength": 432,      "target": 34962,      "byteStride": 12    },    {      "buffer": 0,      "byteOffset": 69696,      "byteLength": 2304,      "target": 34962,      "byteStride": 12    },    {      "buffer": 0,      "byteOffset": 72000,      "byteLength": 2304,      "target": 34962,      "byteStride": 12    },    {      "buffer": 0,      "byteOffset": 74304,      "byteLength": 5040,      "target": 34962,      "byteStride": 12    },    {      "buffer": 0,      "byteOffset": 79344,      "byteLength": 5040,      "target": 34962,      "byteStride": 12    },    {      "buffer": 0,      "byteOffset": 84384,      "byteLength": 4464,      "target": 34962,      "byteStride": 12    },    {      "buffer": 0,      "byteOffset": 88848,      "byteLength": 4464,      "target": 34962,      "byteStride": 12    },    {      "buffer": 0,      "byteOffset": 93312,      "byteLength": 4464,      "target": 34962,      "byteStride": 12    },    {      "buffer": 0,      "byteOffset": 97776,      "byteLength": 4464,      "target": 34962,      "byteStride": 12    },    {      "buffer": 0,      "byteOffset": 102240,      "byteLength": 4464,      "target": 34962,      "byteStride": 12    },    {      "buffer": 0,      "byteOffset": 106704,      "byteLength": 4464,      "target": 34962,      "byteStride": 12    }  ],  "buffers": [    {      "byteLength": 111168,      "uri": "data:application/octet-stream;base64,"    }  ],  "accessors": [    {      "bufferView": 0,      "componentType": 5126,      "count": 468,      "max": [        2.0620977878570557,        27.20168113708496,        19.005516052246094      ],      "min": [        -2.0620977878570557,        24.82345962524414,        -19.00551414489746      ],      "type": "VEC3"    },    {      "bufferView": 1,      "componentType": 5126,      "count": 468,      "max": [        1,        1,        1      ],      "min": [        -1,        -1,        -1      ],      "type": "VEC3"    },    {      "bufferView": 2,      "componentType": 5126,      "count": 36,      "max": [        2.9310948848724365,        44.40945053100586,        1.3675248622894287      ],      "min": [        -2.9310948848724365,        37.349693298339844,        -0.08419376611709595      ],      "type": "VEC3"    },    {      "bufferView": 3,      "componentType": 5126,      "count": 36,      "max": [        1,        1,        1      ],      "min": [        -1,        -1,        -1      ],      "type": "VEC3"    },    {      "bufferView": 4,      "componentType": 5126,      "count": 36,      "max": [        2.9310948848724365,        44.40945053100586,        -0.042871057987213135      ],      "min": [        -2.9310948848724365,        37.349693298339844,        -1.4945896863937378      ],      "type": "VEC3"    },    {      "bufferView": 5,      "componentType": 5126,      "count": 36,      "max": [        1,        1,        1      ],      "min": [        -1,        -1,        -1      ],      "type": "VEC3"    },    {      "bufferView": 6,      "componentType": 5126,      "count": 138,      "max": [        13.165956497192383,        -14.674418449401855,        8.569226264953613      ],      "min": [        -13.230030059814453,        -31.865299224853516,        -10.158973693847656      ],      "type": "VEC3"    },    {      "bufferView": 7,      "componentType": 5126,      "count": 138,      "max": [        0.9982909560203552,        0.001434369944036007,        0.9380168914794922      ],      "min": [        -0.9916989803314209,        -1,        -0.9712210297584534      ],      "type": "VEC3"    },    {      "bufferView": 8,      "componentType": 5126,      "count": 138,      "max": [        14.482954978942871,        -2.4205751419067383,        9.539533615112305      ],      "min": [        -14.553437232971191,        -21.331069946289062,        -11.06206226348877      ],      "type": "VEC3"    },    {      "bufferView": 9,      "componentType": 5126,      "count": 138,      "max": [        0.9982909560203552,        0.001434369944036007,        0.9380168914794922      ],      "min": [        -0.9916989803314209,        -1,        -0.9712210297584534      ],      "type": "VEC3"    },    {      "bufferView": 10,      "componentType": 5126,      "count": 36,      "max": [        2.6915223598480225,        -16.754528045654297,        12.710027694702148      ],      "min": [        -3.4601144790649414,        -18.113784790039062,        8.70032787322998      ],      "type": "VEC3"    },    {      "bufferView": 11,      "componentType": 5126,      "count": 36,      "max": [        1,        1,        1      ],      "min": [        -1,        -1,        -1      ],      "type": "VEC3"    },    {      "bufferView": 12,      "componentType": 5126,      "count": 36,      "max": [        2.6915223598480225,        -14.047205924987793,        12.78571605682373      ],      "min": [        -3.4601144790649414,        -18.059986114501953,        11.417348861694336      ],      "type": "VEC3"    },    {      "bufferView": 13,      "componentType": 5126,      "count": 36,      "max": [        1,        1,        1      ],      "min": [        -1,        -1,        -1      ],      "type": "VEC3"    },    {      "bufferView": 14,      "componentType": 5126,      "count": 192,      "max": [        -4.597562313079834,        -34.45793151855469,        -10.356720924377441      ],      "min": [        -8.08659839630127,        -36.73307418823242,        -10.786927223205566      ],      "type": "VEC3"    },    {      "bufferView": 15,      "componentType": 5126,      "count": 192,      "max": [        1,        1,        1      ],      "min": [        -1,        -1,        -1      ],      "type": "VEC3"    },    {      "bufferView": 16,      "componentType": 5126,      "count": 852,      "max": [        13.100234985351562,        -21.68193817138672,        8.516165733337402      ],      "min": [        -13.16398811340332,        -41.33998489379883,        -11.068352699279785      ],      "type": "VEC3"    },    {      "bufferView": 17,      "componentType": 5126,      "count": 852,      "max": [        0.999969482421875,        1,        1      ],      "min": [        -0.999969482421875,        -1,        -0.999969482421875      ],      "type": "VEC3"    },    {      "bufferView": 18,      "componentType": 5126,      "count": 900,      "max": [        9.487646102905273,        -14.138806343078613,        10.971467971801758      ],      "min": [        -9.435221672058105,        -41.31770706176758,        -12.496870994567871      ],      "type": "VEC3"    },    {      "bufferView": 19,      "componentType": 5126,      "count": 900,      "max": [        1,        1,        1      ],      "min": [        -1,        -1,        -1      ],      "type": "VEC3"    },    {      "bufferView": 20,      "componentType": 5126,      "count": 36,      "max": [        2.694868564605713,        -14.047205924987793,        -12.754005432128906      ],      "min": [        -3.459367513656616,        -18.059986114501953,        -14.134110450744629      ],      "type": "VEC3"    },    {      "bufferView": 21,      "componentType": 5126,      "count": 36,      "max": [        1,        1,        1      ],      "min": [        -1,        -1,        -1      ],      "type": "VEC3"    },    {      "bufferView": 22,      "componentType": 5126,      "count": 36,      "max": [        2.6947250366210938,        -16.754528045654297,        -10.036989212036133      ],      "min": [        -3.4645533561706543,        -18.113784790039062,        -14.05842113494873      ],      "type": "VEC3"    },    {      "bufferView": 23,      "componentType": 5126,      "count": 36,      "max": [        1,        1,        1      ],      "min": [        -1,        -1,        -1      ],      "type": "VEC3"    },    {      "bufferView": 24,      "componentType": 5126,      "count": 192,      "max": [        8.008328437805176,        -34.45793151855469,        -10.356720924377441      ],      "min": [        4.519291400909424,        -36.73307418823242,        -10.786927223205566      ],      "type": "VEC3"    },    {      "bufferView": 25,      "componentType": 5126,      "count": 192,      "max": [        1,        1,        1      ],      "min": [        -1,        -1,        -1      ],      "type": "VEC3"    },    {      "bufferView": 26,      "componentType": 5126,      "count": 420,      "max": [        14.76563549041748,        38.93956756591797,        10.006781578063965      ],      "min": [        -14.76563549041748,        -7.758467674255371,        -10.840855598449707      ],      "type": "VEC3"    },    {      "bufferView": 27,      "componentType": 5126,      "count": 420,      "max": [        1,        1,        1      ],      "min": [        -1,        -1,        -1      ],      "type": "VEC3"    },    {      "bufferView": 28,      "componentType": 5126,      "count": 372,      "max": [        1.565110683441162,        -38.6088981628418,        0.9313760995864868      ],      "min": [        -1.5126796960830688,        -44.40945053100586,        -2.1468722820281982      ],      "type": "VEC3"    },    {      "bufferView": 29,      "componentType": 5126,      "count": 372,      "max": [        0.9951781034469604,        1,        0.9951781034469604      ],      "min": [        -0.9951781034469604,        -1,        -0.9951781034469604      ],      "type": "VEC3"    },    {      "bufferView": 30,      "componentType": 5126,      "count": 372,      "max": [        2.141024351119995,        14.879682540893555,        12.283761024475098      ],      "min": [        -2.0885932445526123,        10.534844398498535,        4.252223491668701      ],      "type": "VEC3"    },    {      "bufferView": 31,      "componentType": 5126,      "count": 372,      "max": [        0.9951781034469604,        0.9950864911079407,        0.999908447265625      ],      "min": [        -0.9951781034469604,        -0.9950864911079407,        -0.999908447265625      ],      "type": "VEC3"    },    {      "bufferView": 32,      "componentType": 5126,      "count": 372,      "max": [        2.5338830947875977,        28.092676162719727,        10.390854835510254      ],      "min": [        -2.4528675079345703,        24.005535125732422,        -11.528396606445312      ],      "type": "VEC3"    },    {      "bufferView": 33,      "componentType": 5126,      "count": 372,      "max": [        0.9928586483001709,        0.9967650175094604,        1      ],      "min": [        -0.9928586483001709,        -0.9967650175094604,        -1      ],      "type": "VEC3"    }  ],  "materials": [    {      "pbrMetallicRoughness": {        "baseColorFactor": [          0.6038273388475408,          0.6038273388475408,          0.6038273388475408,          1        ],        "metallicFactor": 0.5,        "roughnessFactor": 0.5      },      "doubleSided": true,      "name": "mat0"    },    {      "pbrMetallicRoughness": {        "baseColorFactor": [          0.4969279521946861,          0.6038273388475408,          0,          1        ],        "metallicFactor": 0.5,        "roughnessFactor": 0.5      },      "doubleSided": true,      "name": "mat1"    },    {      "pbrMetallicRoughness": {        "baseColorFactor": [          0.022172820940618426,          0.025187120064552423,          0.023154407623465028,          1        ],        "metallicFactor": 0.5,        "roughnessFactor": 0.5      },      "doubleSided": true,      "name": "mat2"    },    {      "pbrMetallicRoughness": {        "baseColorFactor": [          0.6038273388475408,          0.2581848775481532,          0,          1        ],        "metallicFactor": 0.5,        "roughnessFactor": 0.5      },      "doubleSided": true,      "name": "mat3"    },    {      "pbrMetallicRoughness": {        "baseColorFactor": [          0.18116836085629623,          0.20863901573717497,          0.19806671766356182,          1        ],        "metallicFactor": 0.5,        "roughnessFactor": 0.5      },      "doubleSided": true,      "name": "mat4"    },    {      "pbrMetallicRoughness": {        "metallicFactor": 0.5,        "roughnessFactor": 0.5      },      "doubleSided": true,      "name": "mat5"    },    {      "pbrMetallicRoughness": {        "baseColorFactor": [          0.01370233867511787,          0.017642716245272135,          0.021218350535819695,          1        ],        "metallicFactor": 0.5,        "roughnessFactor": 0.5      },      "doubleSided": true,      "name": "mat6"    }  ],  "meshes": [    {      "primitives": [        {          "mode": 4,          "attributes": {            "POSITION": 0,            "NORMAL": 1          },          "material": 0        }      ]    },    {      "primitives": [        {          "mode": 4,          "attributes": {            "POSITION": 2,            "NORMAL": 3          },          "material": 1        }      ]    },    {      "primitives": [        {          "mode": 4,          "attributes": {            "POSITION": 4,            "NORMAL": 5          },          "material": 1        }      ]    },    {      "primitives": [        {          "mode": 4,          "attributes": {            "POSITION": 6,            "NORMAL": 7          },          "material": 2        }      ]    },    {      "primitives": [        {          "mode": 4,          "attributes": {            "POSITION": 8,            "NORMAL": 9          },          "material": 1        }      ]    },    {      "primitives": [        {          "mode": 4,          "attributes": {            "POSITION": 10,            "NORMAL": 11          },          "material": 1        }      ]    },    {      "primitives": [        {          "mode": 4,          "attributes": {            "POSITION": 12,            "NORMAL": 13          },          "material": 1        }      ]    },    {      "primitives": [        {          "mode": 4,          "attributes": {            "POSITION": 14,            "NORMAL": 15          },          "material": 3        }      ]    },    {      "primitives": [        {          "mode": 4,          "attributes": {            "POSITION": 16,            "NORMAL": 17          },          "material": 4        }      ]    },    {      "primitives": [        {          "mode": 4,          "attributes": {            "POSITION": 18,            "NORMAL": 19          },          "material": 5        }      ]    },    {      "primitives": [        {          "mode": 4,          "attributes": {            "POSITION": 20,            "NORMAL": 21          },          "material": 1        }      ]    },    {      "primitives": [        {          "mode": 4,          "attributes": {            "POSITION": 22,            "NORMAL": 23          },          "material": 1        }      ]    },    {      "primitives": [        {          "mode": 4,          "attributes": {            "POSITION": 24,            "NORMAL": 25          },          "material": 3        }      ]    },    {      "primitives": [        {          "mode": 4,          "attributes": {            "POSITION": 26,            "NORMAL": 27          },          "material": 1        }      ]    },    {      "primitives": [        {          "mode": 4,          "attributes": {            "POSITION": 28,            "NORMAL": 29          },          "material": 6        }      ]    },    {      "primitives": [        {          "mode": 4,          "attributes": {            "POSITION": 30,            "NORMAL": 31          },          "material": 1        }      ]    },    {      "primitives": [        {          "mode": 4,          "attributes": {            "POSITION": 32,            "NORMAL": 33          },          "material": 5        }      ]    }  ]}