{  "asset": {    "version": "2.0",    "generator": "THREE.GLTFExporter"  },  "scenes": [    {      "name": "AuxScene",      "nodes": [        4      ]    }  ],  "scene": 0,  "nodes": [    {      "mesh": 0    },    {      "mesh": 1    },    {      "mesh": 2    },    {      "mesh": 3    },    {      "children": [        0,        1,        2,        3      ]    }  ],  "bufferViews": [    {      "buffer": 0,      "byteOffset": 0,      "byteLength": 966168,      "target": 34962,      "byteStride": 12    },    {      "buffer": 0,      "byteOffset": 966168,      "byteLength": 966168,      "target": 34962,      "byteStride": 12    },    {      "buffer": 0,      "byteOffset": 1932336,      "byteLength": 644112,      "target": 34962,      "byteStride": 8    },    {      "buffer": 0,      "byteOffset": 2576448,      "byteLength": 15912,      "target": 34962,      "byteStride": 12    },    {      "buffer": 0,      "byteOffset": 2592360,      "byteLength": 15912,      "target": 34962,      "byteStride": 12    },    {      "buffer": 0,      "byteOffset": 2608272,      "byteLength": 10608,      "target": 34962,      "byteStride": 8    },    {      "buffer": 0,      "byteOffset": 2618880,      "byteLength": 19008,      "target": 34962,      "byteStride": 12    },    {      "buffer": 0,      "byteOffset": 2637888,      "byteLength": 19008,      "target": 34962,      "byteStride": 12    },    {      "buffer": 0,      "byteOffset": 2656896,      "byteLength": 12672,      "target": 34962,      "byteStride": 8    },    {      "buffer": 0,      "byteOffset": 2669568,      "byteLength": 7776,      "target": 34962,      "byteStride": 12    },    {      "buffer": 0,      "byteOffset": 2677344,      "byteLength": 7776,      "target": 34962,      "byteStride": 12    },    {      "buffer": 0,      "byteOffset": 2685120,      "byteLength": 5184,      "target": 34962,      "byteStride": 8    }  ],  "buffers": [    {      "byteLength": 2690304,      "uri": "data:application/octet-stream;base64,"    }  ],  "accessors": [    {      "bufferView": 0,      "componentType": 5126,      "count": 80514,      "max": [        4.5759782791137695,        -11.63739013671875,        4.5759735107421875      ],      "min": [        -4.5759687423706055,        -12.710762023925781,        -4.575969696044922      ],      "type": "VEC3"    },    {      "bufferView": 1,      "componentType": 5126,      "count": 80514,      "max": [        1,        1,        1      ],      "min": [        -1,        -1,        -1      ],      "type": "VEC3"    },    {      "bufferView": 2,      "componentType": 5126,      "count": 80514,      "max": [        0.8296151757240295,        0.8766747117042542      ],      "min": [        0.7098910212516785,        0.7768486738204956      ],      "type": "VEC2"    },    {      "bufferView": 3,      "componentType": 5126,      "count": 1326,      "max": [        29.750791549682617,        15.150897979736328,        29.750789642333984      ],      "min": [        -29.75078773498535,        -15.150897979736328,        -29.750791549682617      ],      "type": "VEC3"    },    {      "bufferView": 4,      "componentType": 5126,      "count": 1326,      "max": [        1,        1,        0.999847412109375      ],      "min": [        -1,        -0.9981994032859802,        -1      ],      "type": "VEC3"    },    {      "bufferView": 5,      "componentType": 5126,      "count": 1326,      "max": [        0.8449049592018127,        0.8766747117042542      ],      "min": [        0.555955708026886,        0.24091310799121857      ],      "type": "VEC2"    },    {      "bufferView": 6,      "componentType": 5126,      "count": 1584,      "max": [        14.274407386779785,        -10.693304061889648,        14.2744140625      ],      "min": [        -14.27440357208252,        -15.096290588378906,        -14.274401664733887      ],      "type": "VEC3"    },    {      "bufferView": 7,      "componentType": 5126,      "count": 1584,      "max": [        1,        0,        1      ],      "min": [        -1,        -0.9967039823532104,        -1      ],      "type": "VEC3"    },    {      "bufferView": 8,      "componentType": 5126,      "count": 1584,      "max": [        0.7367473244667053,        0.43348491191864014      ],      "min": [        0.5177770256996155,        0.061464279890060425      ],      "type": "VEC2"    },    {      "bufferView": 9,      "componentType": 5126,      "count": 648,      "max": [        2.885519504547119,        -12.40540599822998,        2.8855247497558594      ],      "min": [        -2.885514974594116,        -13.571630477905273,        -2.885509490966797      ],      "type": "VEC3"    },    {      "bufferView": 10,      "componentType": 5126,      "count": 648,      "max": [        0.7723013758659363,        -0.635212242603302,        0.7723013758659363      ],      "min": [        -0.7723013758659363,        -1,        -0.7723013758659363      ],      "type": "VEC3"    },    {      "bufferView": 11,      "componentType": 5126,      "count": 648,      "max": [        0.7184972763061523,        0.6649067401885986      ],      "min": [        0.6764122247695923,        0.5919370055198669      ],      "type": "VEC2"    }  ],  "materials": [    {      "pbrMetallicRoughness": {        "baseColorFactor": [          0.001821207430224,          0.001821207430224,          0.001821207430224,          1        ],        "metallicFactor": 0.5,        "roughnessFactor": 0.5      },      "doubleSided": true,      "name": "mat0"    },    {      "pbrMetallicRoughness": {        "baseColorFactor": [          0.6038273388475408,          0.6038273388475408,          0.6038273388475408,          1        ],        "metallicFactor": 0.5,        "roughnessFactor": 0.5      },      "doubleSided": true,      "name": "mat1"    },    {      "pbrMetallicRoughness": {        "baseColorFactor": [          0,          0,          0,          1        ],        "metallicFactor": 0.5,        "roughnessFactor": 0.5      },      "doubleSided": true,      "name": "mat2"    }  ],  "meshes": [    {      "primitives": [        {          "mode": 4,          "attributes": {            "POSITION": 0,            "NORMAL": 1,            "TEXCOORD_0": 2          },          "material": 0        }      ]    },    {      "primitives": [        {          "mode": 4,          "attributes": {            "POSITION": 3,            "NORMAL": 4,            "TEXCOORD_0": 5          },          "material": 1        }      ]    },    {      "primitives": [        {          "mode": 4,          "attributes": {            "POSITION": 6,            "NORMAL": 7,            "TEXCOORD_0": 8          },          "material": 1        }      ]    },    {      "primitives": [        {          "mode": 4,          "attributes": {            "POSITION": 9,            "NORMAL": 10,            "TEXCOORD_0": 11          },          "material": 2        }      ]    }  ]}